<svg width="301" height="336" viewBox="0 0 301 336" fill="none" xmlns="http://www.w3.org/2000/svg">
<path fill-rule="evenodd" clip-rule="evenodd" d="M145.356 282.039L189.399 277.982L183.023 289.188L195.434 296.188C195.917 296.461 196.217 296.971 196.22 297.525C196.225 298.379 195.537 299.075 194.684 299.08C180.521 299.166 170.095 299.176 163.407 299.111C155.835 299.038 149.58 298.895 144.642 298.683L145.356 282.039ZM21.4932 243.01L33.0862 270.833L18.4778 276.202L3.25108 295.162C2.91674 295.578 2.39122 295.792 1.8611 295.728C1.01354 295.626 0.409183 294.856 0.511239 294.009L5.90261 249.234L21.4932 243.01Z" fill="black"/>
<path fill-rule="evenodd" clip-rule="evenodd" d="M190.018 172.487L232.378 198.723C242.147 204.773 245.338 217.493 239.582 227.438L206.635 284.359L140.128 284.345L204.51 219.245L153.114 200.117L107.087 229.21L42.0139 293.054L16.2754 231.298L78.532 208.232L113.311 186.592L128.575 168.43L190.018 172.487Z" fill="white"/>
<path d="M204.512 219.421L140.781 283.862L206.428 283.876L239.291 227.1C244.969 217.29 241.821 204.744 232.185 198.776L189.887 172.578L128.662 168.535L113.463 186.62L78.6449 208.285L78.5924 208.311L16.6187 231.272L42.0764 292.354L106.844 228.809L106.892 228.771L153.04 199.602L204.374 218.707L205.789 216.939C205.889 216.814 206.071 216.794 206.196 216.894C206.321 216.994 206.341 217.176 206.241 217.301L204.946 218.92L204.991 218.937L204.93 218.998L206.169 219.772C206.304 219.857 206.346 220.036 206.261 220.172C206.176 220.308 205.997 220.349 205.862 220.264L204.512 219.421ZM113.079 186.177L113.049 186.212L113.118 186.153L113.079 186.177ZM113.079 186.177L128.408 167.938L190.069 172.009L232.49 198.283C242.393 204.416 245.627 217.309 239.792 227.39L206.762 284.456L139.393 284.441L203.948 219.167L153.107 200.245L107.228 229.245L41.8709 293.367L15.8516 230.938L78.3635 207.777L113.079 186.177ZM78.3635 207.777L78.3386 207.793L78.391 207.767L78.3635 207.777Z" fill="black"/>
<path fill-rule="evenodd" clip-rule="evenodd" d="M149.209 112.011L178.226 112.348L206.569 115.066L267.844 118.967L252.194 47.8633L277.892 48.0565C292.578 102.488 299.95 130.545 300.006 132.23C300.335 142.042 292.647 150.262 282.835 150.591L197.513 144.278L189.591 170.942L151.141 169.203L149.209 112.011Z" fill="white"/>
<path d="M189.996 171.25L148.919 167.729L149.114 111.717L149.406 111.721L178.447 112.059L206.781 114.776L267.672 118.653L252.027 47.5703L278.308 47.7679L278.365 47.9806C293.099 102.588 300.432 130.497 300.49 132.22C300.824 142.192 293.011 150.546 283.008 150.88L197.919 144.584L189.996 171.25ZM149.5 167.197L189.575 170.632L197.496 143.971L197.729 143.988L283.019 150.301C292.671 149.978 300.234 141.891 299.91 132.239C299.855 130.595 292.464 102.46 277.863 48.3442L252.749 48.1554L268.404 119.28L268.02 119.256L206.735 115.354L178.416 112.637L149.692 112.304L149.5 167.197Z" fill="black"/>
<path fill-rule="evenodd" clip-rule="evenodd" d="M171.236 171.714L190.038 172.221L191.045 168.163L171.236 167.463V171.714Z" fill="black"/>
<path fill-rule="evenodd" clip-rule="evenodd" d="M74.4352 79.5497L47.2622 170.587C45.4921 176.517 48.6926 182.793 54.5327 184.842L66.1268 188.91L124.865 149.687L124.906 112.01L97.8144 122.637L112.885 79.5497L102.452 54.4316L91.4383 59.8417L74.4352 79.5497Z" fill="white"/>
<path d="M113.447 79.2617H74.3724L47.1377 170.506C45.3233 176.585 48.6038 183.017 54.5899 185.117L66.3206 189.233L125.308 149.844L125.349 111.587L98.4497 122.138L113.447 79.2617ZM74.8043 79.8414H112.63L97.4855 123.139L124.768 112.437L124.728 149.534L66.2394 188.59L54.7818 184.57C49.0878 182.572 45.9672 176.454 47.6931 170.672L74.8043 79.8414Z" fill="black"/>
<path fill-rule="evenodd" clip-rule="evenodd" d="M114.045 89.5965L111.94 98.6082L68.8317 87.6643L70.7825 78.39L114.045 89.5965Z" fill="white"/>
<path d="M114.312 89.3652L111.975 98.7391L68.4805 87.8946L70.8176 78.5208L114.312 89.3652ZM113.61 89.7874L71.2398 79.2235L69.1831 87.4724L111.553 98.0364L113.61 89.7874Z" fill="black"/>
<path d="M73.4934 84.1671C73.1707 85.4613 73.9583 86.7721 75.2526 87.0948C76.5469 87.4175 77.8577 86.6299 78.1804 85.3356C78.5031 84.0414 77.7154 82.7306 76.4212 82.4079C75.1269 82.0852 73.8161 82.8728 73.4934 84.1671ZM74.0558 84.3073C74.3011 83.3237 75.2973 82.7251 76.2809 82.9703C77.2646 83.2156 77.8632 84.2118 77.6179 85.1954C77.3727 86.179 76.3765 86.7776 75.3928 86.5324C74.4092 86.2871 73.8106 85.2909 74.0558 84.3073Z" fill="black"/>
<path d="M170.087 164.161L162.377 163.622C160.674 163.503 159.196 164.787 159.077 166.49L158.7 171.887C158.581 173.59 159.865 175.068 161.568 175.187L169.278 175.726C170.981 175.845 172.459 174.561 172.578 172.857L172.955 167.461C173.074 165.757 171.79 164.28 170.087 164.161Z" fill="white"/>
<path d="M162.376 163.538L170.086 164.077C171.789 164.196 173.073 165.673 172.954 167.377L172.577 172.773C172.458 174.477 170.98 175.761 169.277 175.642L161.567 175.103C159.864 174.984 158.58 173.506 158.699 171.803L159.076 166.406C159.195 164.703 160.673 163.419 162.376 163.538ZM162.336 164.116C160.952 164.019 159.751 165.063 159.655 166.447L159.277 171.843C159.18 173.227 160.224 174.428 161.608 174.524L169.318 175.064C170.701 175.16 171.902 174.117 171.998 172.733L172.376 167.336C172.473 165.952 171.429 164.752 170.045 164.655L162.336 164.116Z" fill="black"/>
<path fill-rule="evenodd" clip-rule="evenodd" d="M124.118 240.565L124.484 80.7098H124.85V79.9126H58.0117V59.2706L124.519 0.332031H149.204V59.2706H168.146V79.9126H149.204V80.7098H149.21V251.899H149.204V298.858H168.146V319.5H149.204V334.982H124.85V319.5H58.0117V298.858L124.118 240.565ZM83.9435 298.85H124.519L124.326 265.038L83.9435 298.85ZM83.9028 59.4561H124.478L124.326 25.4501L83.9028 59.4561Z" fill="#EEF5FF"/>
<path d="M123.981 240.434L124.347 80.7099C124.347 80.5501 124.477 80.4207 124.637 80.4207H124.712V80.2032H58.1638C58.0038 80.2032 57.874 80.0735 57.874 79.9134V59.2713C57.874 59.1884 57.9096 59.1094 57.9716 59.0544L124.479 0.115886C124.532 0.0689079 124.6 0.0429688 124.671 0.0429688H149.356C149.516 0.0429688 149.646 0.172727 149.646 0.332792V58.9815H168.298C168.458 58.9815 168.587 59.1113 168.587 59.2713V79.9134C168.587 80.0735 168.458 80.2032 168.298 80.2032H149.646V80.6486C149.65 80.6685 149.652 80.6893 149.652 80.7106V251.9C149.652 251.921 149.65 251.942 149.646 251.962V298.569H168.298C168.458 298.569 168.587 298.699 168.587 298.859V319.501C168.587 319.661 168.458 319.791 168.298 319.791H149.646V334.983C149.646 335.143 149.516 335.272 149.356 335.272H125.002C124.842 335.272 124.712 335.143 124.712 334.983V319.791H58.1638C58.0038 319.791 57.874 319.661 57.874 319.501V298.859C57.874 298.776 57.9098 298.697 57.9722 298.642L123.981 240.434ZM124.712 80.4207H125.002L124.712 80.7106V80.4207ZM124.56 240.566C124.56 240.649 124.524 240.728 124.462 240.783L58.4537 298.99V319.211H125.002C125.162 319.211 125.292 319.341 125.292 319.501V334.693H149.066V319.501C149.066 319.341 149.196 319.211 149.356 319.211H168.008V299.149H149.356C149.196 299.149 149.066 299.019 149.066 298.859V251.9C149.066 251.878 149.068 251.858 149.073 251.838V80.7726C149.068 80.7526 149.066 80.7318 149.066 80.7106V79.9134C149.066 79.7533 149.196 79.6236 149.356 79.6236H168.008V59.5612H149.356C149.196 59.5612 149.066 59.4314 149.066 59.2713V0.622616H124.781L58.4537 59.4017V79.6236H125.002C125.162 79.6236 125.292 79.7533 125.292 79.9134V80.7106C125.292 80.8706 125.162 81.0004 125.002 81.0004H124.926L124.56 240.566ZM84.0956 299.141C83.8249 299.141 83.702 298.803 83.9096 298.629L124.292 264.816C124.48 264.659 124.766 264.792 124.768 265.037L124.961 298.85C124.962 299.01 124.832 299.141 124.671 299.141H84.0956ZM124.38 298.561L124.192 265.656L84.8932 298.561H124.38ZM84.055 59.7466C83.7846 59.7466 83.6615 59.4091 83.8684 59.235L124.291 25.2291C124.479 25.0709 124.767 25.2038 124.768 25.4495L124.92 59.4555C124.921 59.6161 124.791 59.7466 124.631 59.7466H84.055ZM124.339 59.167L124.191 26.0711L84.8497 59.167H124.339Z" fill="black"/>
<path d="M113.079 216.348C75.7406 216.348 58.0117 199.035 58.0117 167.522C58.0117 136.144 75.7406 118.967 113.079 118.967C150.282 118.967 168.146 136.279 168.146 167.522C168.146 198.9 150.282 216.348 113.079 216.348ZM112.885 195.867C134.388 195.867 144.187 185.204 144.187 167.522C144.187 149.976 134.388 139.448 112.885 139.448C91.3828 139.448 81.5842 149.841 81.5842 167.522C81.5842 185.339 91.3828 195.867 112.885 195.867Z" fill="#EEF5FF"/>
<path d="M113.231 216.638C76.4016 216.638 57.874 199.805 57.874 167.523C57.874 135.393 76.3858 118.678 113.231 118.678C149.936 118.678 168.587 135.523 168.587 167.523C168.587 199.675 149.92 216.638 113.231 216.638ZM113.231 216.058C149.612 216.058 168.008 199.342 168.008 167.523C168.008 135.857 149.628 119.257 113.231 119.257C76.6935 119.257 58.4537 135.727 58.4537 167.523C58.4537 199.472 76.7099 216.058 113.231 216.058ZM113.038 196.157C92.0447 196.157 81.4465 186.133 81.4465 167.523C81.4465 149.066 92.0318 139.159 113.038 139.159C133.991 139.159 144.629 149.15 144.629 167.523C144.629 186.05 133.979 196.157 113.038 196.157ZM113.038 195.578C133.665 195.578 144.049 185.723 144.049 167.523C144.049 149.478 133.679 139.738 113.038 139.738C92.3437 139.738 82.0262 149.395 82.0262 167.523C82.0262 185.806 92.3578 195.578 113.038 195.578Z" fill="black"/>
<path d="M77.3775 208.039C64.334 200 58.0117 186.275 58.0117 167.522C58.0117 148.678 64.4506 134.956 77.7384 127L89.1538 146.871C84.0283 151.679 81.5842 158.692 81.5842 167.523C81.5842 176.13 83.871 183.036 88.6595 187.876L77.3775 208.039ZM148.78 208.039L137.498 187.876C142.286 183.036 144.573 176.13 144.573 167.523C144.573 158.692 142.129 151.679 137.003 146.871L148.419 127C161.707 134.956 168.146 148.678 168.146 167.522C168.146 186.275 161.823 200 148.78 208.039Z" fill="black"/>
<path d="M75.2613 169.857C74.9404 172.268 72.8762 174.128 70.3776 174.128C67.8791 174.128 65.8149 172.268 65.4939 169.857L65.1725 170.179C65.0593 170.292 64.8758 170.292 64.7626 170.179C64.6494 170.065 64.6494 169.882 64.7626 169.769L65.7404 168.791L66.7182 169.769C66.8314 169.882 66.8314 170.065 66.7182 170.179C66.605 170.292 66.4215 170.292 66.3084 170.179L66.0977 169.968C66.4436 171.91 68.0794 173.407 70.0878 173.539V165.217C70.0261 165.207 69.9643 165.194 69.9026 165.177C68.9234 164.915 68.3422 163.908 68.6046 162.929C68.867 161.95 69.8735 161.369 70.8527 161.631C71.8319 161.894 72.413 162.9 72.1507 163.879C71.9573 164.601 71.3601 165.106 70.6675 165.217V173.539C72.6759 173.407 74.3117 171.91 74.6576 169.968L74.4469 170.179C74.3337 170.292 74.1502 170.292 74.037 170.179C73.9239 170.065 73.9239 169.882 74.037 169.769L75.0149 168.791L75.9927 169.769C76.1058 169.882 76.1058 170.065 75.9927 170.179C75.8795 170.292 75.696 170.292 75.5828 170.179L75.2613 169.857ZM70.0526 164.617C70.7226 164.797 71.4112 164.399 71.5908 163.729C71.7703 163.059 71.3727 162.371 70.7027 162.191C70.0327 162.012 69.344 162.409 69.1645 163.079C68.985 163.749 69.3826 164.438 70.0526 164.617Z" fill="white"/>
<path d="M156.069 173.539V165.217C156.131 165.207 156.193 165.194 156.255 165.177C157.234 164.915 157.815 163.908 157.553 162.929C157.29 161.95 156.284 161.369 155.305 161.631C154.325 161.894 153.744 162.9 154.007 163.879C154.2 164.601 154.797 165.106 155.49 165.217V173.539C153.481 173.407 151.846 171.91 151.5 169.968L151.71 170.179C151.823 170.292 152.007 170.292 152.12 170.179C152.233 170.065 152.233 169.882 152.12 169.769L151.142 168.791L150.165 169.769C150.051 169.882 150.051 170.065 150.165 170.179C150.278 170.292 150.461 170.292 150.574 170.179L150.896 169.857C151.217 172.268 153.281 174.128 155.78 174.128C158.278 174.128 160.342 172.268 160.663 169.857L160.985 170.179C161.098 170.292 161.281 170.292 161.395 170.179C161.508 170.065 161.508 169.882 161.395 169.769L160.417 168.791L159.439 169.769C159.326 169.882 159.326 170.065 159.439 170.179C159.552 170.292 159.736 170.292 159.849 170.179L160.059 169.968C159.714 171.91 158.078 173.407 156.069 173.539ZM156.105 164.617C155.435 164.797 154.746 164.399 154.566 163.729C154.387 163.059 154.785 162.371 155.455 162.191C156.125 162.012 156.813 162.409 156.993 163.079C157.172 163.749 156.775 164.438 156.105 164.617Z" fill="white"/>
<path fill-rule="evenodd" clip-rule="evenodd" d="M230.747 54.4306L205.079 59.3515C207.884 62.4514 211.467 64.0803 215.83 64.238C220.192 64.3957 226.159 63.8921 233.73 62.7271L230.747 54.4306Z" fill="white"/>
<path d="M224.445 54.8782L224.303 54.3163L204.469 59.3478L204.792 59.7048C207.65 62.8634 211.307 64.5259 215.747 64.6864C220.131 64.8449 226.114 64.3399 233.702 63.1723L233.614 62.5994C226.059 63.7619 220.109 64.2641 215.768 64.1071C211.653 63.9583 208.253 62.4813 205.552 59.6709L224.445 54.8782Z" fill="black"/>
<mask id="mask0_1602_58190" style="mask-type:alpha" maskUnits="userSpaceOnUse" x="155" y="47" width="55" height="66">
<path d="M178.386 112.009L182.25 96.5517L189.506 97.566C195.64 98.4235 201.463 94.6106 203.129 88.6451L208.903 67.9663C211.257 59.5385 206.332 50.7986 197.904 48.4451C196.517 48.0577 195.083 47.8613 193.643 47.8613H180.641C175.897 47.8613 171.751 51.0614 170.548 55.6502L155.779 112.009H178.386Z" fill="white"/>
</mask>
<g mask="url(#mask0_1602_58190)">
<path d="M178.386 112.009L182.25 96.5517L189.506 97.566C195.64 98.4235 201.463 94.6106 203.129 88.6451L208.903 67.9663C211.257 59.5385 206.332 50.7986 197.904 48.4451C196.517 48.0577 195.083 47.8613 193.643 47.8613H180.641C175.897 47.8613 171.751 51.0614 170.548 55.6502L155.779 112.009H178.386Z" fill="white"/>
<mask id="mask1_1602_58190" style="mask-type:alpha" maskUnits="userSpaceOnUse" x="155" y="47" width="55" height="66">
<path d="M178.386 112.009L182.25 96.5517L189.506 97.566C195.64 98.4235 201.463 94.6106 203.129 88.6451L208.903 67.9663C211.257 59.5385 206.332 50.7986 197.904 48.4451C196.517 48.0577 195.083 47.8613 193.643 47.8613H180.641C175.897 47.8613 171.751 51.0614 170.548 55.6502L155.779 112.009H178.386Z" fill="white"/>
</mask>
<g mask="url(#mask1_1602_58190)">
<path d="M178.386 112.009L182.25 96.5517L189.506 97.566C195.64 98.4235 201.463 94.6106 203.129 88.6451L208.903 67.9663C211.257 59.5385 206.332 50.7986 197.904 48.4451C196.517 48.0577 195.083 47.8613 193.643 47.8613H180.641C175.897 47.8613 171.751 51.0614 170.548 55.6502L155.779 112.009H178.386Z" fill="white"/>
<path fill-rule="evenodd" clip-rule="evenodd" d="M206.349 70.907L208.334 70.6593L208.075 74.6649C208.036 75.2576 207.525 75.707 206.932 75.6686C206.905 75.6669 206.879 75.6641 206.852 75.6604C206.218 75.5713 205.776 74.9851 205.865 74.351L206.349 70.907Z" fill="black"/>
</g>
<path d="M189.467 97.8538C195.745 98.7314 201.703 94.8291 203.408 88.7239L209.183 68.045C211.579 59.463 206.565 50.5632 197.983 48.1667C196.57 47.7723 195.11 47.5723 193.644 47.5723H180.642C175.766 47.5723 171.504 50.8612 170.268 55.5775L155.404 112.3H178.613L182.469 96.8756L189.467 97.8538ZM178.16 111.72H156.155L170.829 55.7244C171.998 51.2631 176.03 48.1519 180.642 48.1519H193.644C195.058 48.1519 196.465 48.3447 197.827 48.725C206.101 51.0354 210.935 59.6154 208.624 67.8891L202.85 88.568C201.223 94.3936 195.537 98.1171 189.547 97.2798L182.033 96.2294L178.16 111.72Z" fill="black"/>
</g>
<mask id="mask2_1602_58190" style="mask-type:alpha" maskUnits="userSpaceOnUse" x="160" y="47" width="36" height="33">
<path d="M185.915 68.7222L184.811 67.6179C182.428 65.2357 178.573 65.214 176.164 67.5693C173.873 69.8093 173.832 73.4822 176.072 75.7731C176.135 75.838 176.2 75.9014 176.267 75.9632L177.052 76.6944C172.901 78.4809 167.227 79.5611 160.03 79.9352L170.282 53.7542C171.674 50.1999 175.101 47.8613 178.918 47.8613H195.775C192.197 57.1357 188.91 64.0893 185.915 68.7222Z" fill="white"/>
</mask>
<g mask="url(#mask2_1602_58190)">
<path d="M185.915 68.7222L184.811 67.6179C182.428 65.2357 178.573 65.214 176.164 67.5693C173.873 69.8093 173.832 73.4822 176.072 75.7731C176.135 75.838 176.2 75.9014 176.267 75.9632L177.052 76.6944C172.901 78.4809 167.227 79.5611 160.03 79.9352L170.282 53.7542C171.674 50.1999 175.101 47.8613 178.918 47.8613H195.775C192.197 57.1357 188.91 64.0893 185.915 68.7222Z" fill="black"/>
</g>
<path fill-rule="evenodd" clip-rule="evenodd" d="M180.512 39.9412L190.559 31.8262L197.708 39.9412" fill="white"/>
<path fill-rule="evenodd" clip-rule="evenodd" d="M171.236 39.9395C171.236 39.9395 173.362 42.5801 177.612 47.8613H199.446L207.175 39.9395C183.216 39.9395 171.236 39.9395 171.236 39.9395Z" fill="white"/>
<path d="M190.524 32.4171L197.489 40.3238L197.924 39.9406L190.591 31.6172L180.328 39.9067L180.692 40.3577L190.524 32.4171Z" fill="black"/>
<path d="M171.011 40.3153L177.387 48.2371C177.442 48.3055 177.525 48.3452 177.613 48.3452H199.446C199.524 48.3452 199.599 48.3137 199.654 48.2578L207.383 40.336C207.562 40.1524 207.432 39.8438 207.175 39.8438H171.237C170.993 39.8438 170.858 40.1257 171.011 40.3153ZM206.487 40.4234L199.324 47.7656H177.752L171.842 40.4234H206.487Z" fill="black"/>
<path fill-rule="evenodd" clip-rule="evenodd" d="M205.242 71.4375L205.822 84.5762L199.832 80.1322" fill="white"/>
<path fill-rule="evenodd" clip-rule="evenodd" d="M157.518 103.121H171.857L172.244 112.236L177.46 103.121H182.25L179.159 112.395L154.62 112.202L157.518 103.121Z" fill="white"/>
<path d="M198.185 70.6483L197.728 73.9026C197.639 74.5366 197.052 74.9784 196.418 74.8893C195.784 74.8002 195.342 74.2139 195.432 73.5799L195.903 70.2223L189.925 69.106C189.768 69.0766 189.664 68.9253 189.693 68.7679C189.723 68.6106 189.874 68.5068 190.032 68.5362L199.886 70.3762C200.043 70.4056 200.147 70.5569 200.117 70.7143C200.088 70.8716 199.937 70.9754 199.779 70.946L198.185 70.6483ZM205.286 70.9542L208.279 70.3765C208.436 70.3462 208.588 70.449 208.619 70.6062C208.649 70.7633 208.546 70.9153 208.389 70.9457L205.544 71.4948L206.112 84.3666C206.122 84.6105 205.845 84.7576 205.649 84.6122L204.762 83.9538L205.822 87.6641C204.486 87.2997 203.403 86.3209 202.906 85.0283L202.731 84.5726C200.323 85.7132 197.665 86.2225 195.006 86.0528L189.978 85.7319L200.546 80.8256L199.66 80.1682C199.531 80.0728 199.504 79.8913 199.6 79.7628C199.695 79.6342 199.877 79.6073 200.005 79.7027L205.506 83.7838L204.953 71.2535C204.946 71.0936 205.07 70.9582 205.23 70.9512C205.249 70.9503 205.268 70.9514 205.286 70.9542Z" fill="black"/>
<path d="M172.384 112.633L168.348 127.076C168.305 127.231 168.145 127.321 167.991 127.277C167.837 127.234 167.747 127.075 167.79 126.92L171.783 112.628L154.618 112.493C154.423 112.491 154.285 112.301 154.344 112.115L157.242 103.034C157.281 102.914 157.392 102.832 157.518 102.832H171.857C172.012 102.832 172.14 102.954 172.147 103.11L172.491 111.221L177.209 102.978C177.26 102.888 177.356 102.832 177.46 102.832H182.25C182.448 102.832 182.588 103.026 182.525 103.213L179.434 112.488C179.394 112.607 179.282 112.687 179.156 112.686L172.384 112.633ZM155.016 111.916L171.946 112.05L171.579 103.412H157.73L155.016 111.916ZM178.95 112.105L181.848 103.412H177.628L172.681 112.055L178.95 112.105Z" fill="black"/>
<path fill-rule="evenodd" clip-rule="evenodd" d="M208.607 59.4562H231.328C232.487 64.6087 236.996 67.1849 244.853 67.1849C246.406 67.1849 248.327 66.6192 250.618 65.4877L256.446 65.4459V47.8633H195.583C196.354 54.4724 201.953 59.4562 208.607 59.4562Z" fill="white"/>
<path d="M244.812 67.4735C246.402 67.4735 248.344 66.9057 250.645 65.7759L256.695 65.7325V47.5723H195.216L195.254 47.8957C196.042 54.6509 201.765 59.7449 208.566 59.7449H231.057C232.331 64.9002 236.947 67.4735 244.812 67.4735ZM256.115 48.1519V65.157L250.507 65.1972L250.448 65.2267C248.194 66.3401 246.313 66.8938 244.812 66.8938C237.076 66.8938 232.694 64.39 231.569 59.3914L231.518 59.1652H208.566C202.168 59.1652 196.767 54.4535 195.871 48.1519H256.115Z" fill="black"/>
<path d="M195.372 48.0972C199.074 50.7418 203.504 50.7418 208.618 48.1193L208.354 47.6035C203.42 50.1335 199.22 50.1335 195.709 47.6256L195.372 48.0972Z" fill="black"/>
<path d="M265.526 47.0898H256.252V82.2551H265.526V47.0898Z" fill="white"/>
<path d="M256.019 47.0898H265.679V82.2551H256.019V47.0898ZM256.598 81.6755H265.1V47.6695H256.598V81.6755Z" fill="black"/>
<path d="M260.849 78.2952C262.183 78.2952 263.264 77.2139 263.264 75.88C263.264 74.5462 262.183 73.4648 260.849 73.4648C259.515 73.4648 258.434 74.5462 258.434 75.88C258.434 77.2139 259.515 78.2952 260.849 78.2952ZM260.849 77.7156C259.835 77.7156 259.013 76.8938 259.013 75.88C259.013 74.8663 259.835 74.0445 260.849 74.0445C261.863 74.0445 262.684 74.8663 262.684 75.88C262.684 76.8938 261.863 77.7156 260.849 77.7156Z" fill="black"/>
<path d="M149.402 58.9707L58.3965 59.1639L58.3977 59.7436L149.403 59.5504L149.402 58.9707Z" fill="black"/>
<path d="M149.403 79.7441L124.631 80.1306" stroke="black" stroke-width="0.57965"/>
<path d="M141.384 319.814H133.076V334.595C133.076 334.755 132.946 334.885 132.786 334.885C132.626 334.885 132.496 334.755 132.496 334.595V319.814H124.864V319.234H149.596V319.814H141.964V334.595C141.964 334.755 141.834 334.885 141.674 334.885C141.514 334.885 141.384 334.755 141.384 334.595V319.814Z" fill="black"/>
<path d="M168.068 298.559H58.3972C58.2372 298.559 58.1074 298.688 58.1074 298.848C58.1074 299.008 58.2372 299.138 58.3972 299.138H168.068C168.228 299.138 168.358 299.008 168.358 298.848C168.358 298.688 168.228 298.559 168.068 298.559Z" fill="black"/>
<path fill-rule="evenodd" clip-rule="evenodd" d="M103.61 53.6582H106.702C108.409 53.6582 109.793 55.0423 109.793 56.7497V79.1627C109.793 81.7237 107.717 83.7999 105.156 83.7999C102.595 83.7999 100.519 81.7237 100.519 79.1627V56.7497C100.519 55.0423 101.903 53.6582 103.61 53.6582Z" fill="white"/>
<path fill-rule="evenodd" clip-rule="evenodd" d="M112.884 53.6582H115.976C117.683 53.6582 119.067 55.0423 119.067 56.7497V79.1627C119.067 81.7237 116.991 83.7999 114.43 83.7999C111.869 83.7999 109.793 81.7237 109.793 79.1627V56.7497C109.793 55.0423 111.177 53.6582 112.884 53.6582Z" fill="white"/>
<path fill-rule="evenodd" clip-rule="evenodd" d="M122.16 53.6582H125.251C126.959 53.6582 128.343 55.0423 128.343 56.7497V79.1627C128.343 81.7237 126.267 83.7999 123.706 83.7999C121.145 83.7999 119.068 81.7237 119.068 79.1627V56.7497C119.068 55.0423 120.452 53.6582 122.16 53.6582Z" fill="white"/>
<path d="M119.027 80.3265C118.441 82.3336 116.587 83.7999 114.39 83.7999C112.193 83.7999 110.339 82.3336 109.753 80.3265C109.166 82.3336 107.312 83.7999 105.116 83.7999C102.448 83.7999 100.285 81.6372 100.285 78.9695V56.7497C100.285 55.0423 101.669 53.6582 103.377 53.6582H106.855C108.183 53.6582 109.315 54.4957 109.753 55.6715C110.19 54.4957 111.323 53.6582 112.651 53.6582H116.129C117.457 53.6582 118.59 54.4957 119.027 55.6715C119.465 54.4957 120.597 53.6582 121.925 53.6582H125.403C127.111 53.6582 128.495 55.0423 128.495 56.7497V78.9695C128.495 81.6372 126.332 83.7999 123.664 83.7999C121.468 83.7999 119.614 82.3336 119.027 80.3265ZM103.377 54.2379C101.989 54.2379 100.865 55.3624 100.865 56.7497V78.9695C100.865 81.3171 102.768 83.2202 105.116 83.2202C107.463 83.2202 109.366 81.3171 109.366 78.9695V56.7497C109.366 55.3624 108.242 54.2379 106.855 54.2379H103.377ZM112.651 54.2379C111.264 54.2379 110.139 55.3624 110.139 56.7497V78.9695C110.139 81.3171 112.042 83.2202 114.39 83.2202C116.738 83.2202 118.641 81.3171 118.641 78.9695V56.7497C118.641 55.3624 117.516 54.2379 116.129 54.2379H112.651ZM121.925 54.2379C120.538 54.2379 119.414 55.3624 119.414 56.7497V78.9695C119.414 81.3171 121.317 83.2202 123.664 83.2202C126.012 83.2202 127.915 81.3171 127.915 78.9695V56.7497C127.915 55.3624 126.791 54.2379 125.403 54.2379H121.925Z" fill="black"/>
<path d="M101.309 54.3691L92.2275 59.1995L92.4997 59.7113L101.581 54.8809L101.309 54.3691Z" fill="black"/>
<path fill-rule="evenodd" clip-rule="evenodd" d="M75.7173 126.356C76.8263 125.716 78.2443 126.096 78.8846 127.205L89.898 146.28C90.5382 147.389 90.1583 148.807 89.0493 149.447C87.9403 150.088 86.5223 149.708 85.882 148.599L74.8686 129.523C74.2284 128.414 74.6083 126.996 75.7173 126.356ZM75.7173 209.099C74.7932 208.566 74.4765 207.384 75.0101 206.46L86.4099 186.715C86.9435 185.791 88.1252 185.474 89.0493 186.008C89.9734 186.541 90.2901 187.723 89.7565 188.647L78.3567 208.392C77.8231 209.316 76.6415 209.633 75.7173 209.099ZM150.422 126.401C151.439 126.988 151.787 128.288 151.2 129.304L140.38 148.045C139.793 149.062 138.493 149.41 137.477 148.823C136.46 148.236 136.112 146.936 136.699 145.92L147.519 127.179C148.106 126.162 149.406 125.814 150.422 126.401ZM150.396 208.623C149.287 209.264 147.869 208.884 147.229 207.775L136.409 189.034C135.768 187.925 136.148 186.507 137.257 185.866C138.366 185.226 139.784 185.606 140.425 186.715L151.245 205.456C151.885 206.565 151.505 207.983 150.396 208.623Z" fill="white"/>
<path d="M75.7876 126.189C76.989 125.495 78.5252 125.907 79.2188 127.108L90.2322 146.183C90.9258 147.385 90.5142 148.921 89.3128 149.615C88.1114 150.308 86.5752 149.897 85.8816 148.695L74.8682 129.62C74.1746 128.418 74.5862 126.882 75.7876 126.189ZM75.3702 129.33L86.3836 148.405C86.9171 149.33 88.0988 149.646 89.023 149.113C89.9471 148.579 90.2637 147.397 89.7302 146.473L78.7168 127.398C78.1832 126.474 77.0016 126.157 76.0774 126.69C75.1533 127.224 74.8366 128.406 75.3702 129.33ZM75.7876 209.125C74.5862 208.432 74.1746 206.895 74.8682 205.694L85.8816 186.618C86.5752 185.417 88.1114 185.005 89.3128 185.699C90.5142 186.393 90.9258 187.929 90.2322 189.13L79.2188 208.206C78.5252 209.407 76.989 209.819 75.7876 209.125ZM76.0774 208.623C77.0016 209.157 78.1832 208.84 78.7168 207.916L89.7302 188.84C90.2637 187.916 89.9471 186.735 89.023 186.201C88.0988 185.667 86.9171 185.984 86.3836 186.908L75.3702 205.984C74.8366 206.908 75.1533 208.09 76.0774 208.623ZM150.853 126.189C152.054 126.882 152.466 128.418 151.772 129.62L140.759 148.695C140.065 149.897 138.529 150.308 137.328 149.615C136.126 148.921 135.715 147.385 136.408 146.183L147.422 127.108C148.115 125.907 149.651 125.495 150.853 126.189ZM147.924 127.398L136.91 146.473C136.377 147.397 136.693 148.579 137.618 149.113C138.542 149.646 139.723 149.33 140.257 148.405L151.27 129.33C151.804 128.406 151.487 127.224 150.563 126.69C149.639 126.157 148.457 126.474 147.924 127.398ZM150.853 209.125C149.651 209.819 148.115 209.407 147.422 208.206L136.408 189.13C135.715 187.929 136.126 186.393 137.328 185.699C138.529 185.005 140.065 185.417 140.759 186.618L151.772 205.694C152.466 206.895 152.054 208.432 150.853 209.125ZM150.563 208.623C151.487 208.09 151.804 206.908 151.27 205.984L140.257 186.908C139.723 185.984 138.542 185.667 137.618 186.201C136.693 186.735 136.377 187.916 136.91 188.84L147.924 207.916C148.457 208.84 149.639 209.157 150.563 208.623Z" fill="black"/>
<path d="M101.686 78.7945C101.57 78.9047 101.386 78.9 101.276 78.784C101.166 78.6679 101.17 78.4845 101.286 78.3742C103.979 75.8167 106.49 75.8167 108.664 78.3977C108.767 78.5201 108.751 78.703 108.629 78.8061C108.506 78.9092 108.323 78.8935 108.22 78.7711C106.272 76.4573 104.146 76.4573 101.686 78.7945ZM111.153 78.7945C111.037 78.9047 110.854 78.9 110.744 78.784C110.633 78.6679 110.638 78.4845 110.754 78.3742C113.446 75.8167 115.958 75.8167 118.131 78.3977C118.234 78.5201 118.219 78.703 118.096 78.8061C117.974 78.9092 117.791 78.8935 117.688 78.7711C115.739 76.4573 113.614 76.4573 111.153 78.7945ZM120.428 78.7945C120.312 78.9047 120.128 78.9 120.018 78.784C119.908 78.6679 119.913 78.4845 120.029 78.3742C122.721 75.8167 125.232 75.8167 127.406 78.3977C127.509 78.5201 127.493 78.703 127.371 78.8061C127.248 78.9092 127.065 78.8935 126.962 78.7711C125.014 76.4573 122.888 76.4573 120.428 78.7945Z" fill="black"/>
<path d="M124.285 240.5L124.458 266.198" stroke="black" stroke-width="0.57965" stroke-linejoin="round"/>
<path d="M124.341 0.522895L124.921 0.526415L124.768 25.6445L124.188 25.6409L124.341 0.522895ZM132.497 0.0416156C132.497 -0.11845 132.627 0.234831 132.787 0.234831C132.947 0.234831 133.076 0.36459 133.076 0.524655L132.98 59.2623C132.98 59.4223 132.947 59.4555 132.787 59.4555C132.627 59.4555 132.4 59.4223 132.4 59.2623L132.497 0.0416156ZM141.578 0.524655C141.578 0.36459 141.708 0.234831 141.868 0.234831C142.028 0.234831 142.158 0.36459 142.158 0.524655L142.061 59.2623C142.061 59.4223 141.931 59.5521 141.771 59.5521C141.611 59.5521 141.481 59.4223 141.481 59.2623L141.578 0.524655Z" fill="black"/>
</svg>
