<svg width="100" height="100" viewBox="0 0 100 100" fill="none" xmlns="http://www.w3.org/2000/svg">
<path fill-rule="evenodd" clip-rule="evenodd" d="M36.5912 -0.000610352C31.0744 0.00346712 26.6096 4.48053 26.6137 9.99734C26.6096 15.5142 31.0785 19.9912 36.5953 19.9953H46.5769V10.0014C46.581 4.48461 42.1121 0.00754459 36.5912 -0.000610352C36.5953 -0.000610352 36.5953 -0.000610352 36.5912 -0.000610352ZM36.5912 26.666H9.98166C4.46484 26.6701 -0.00406633 31.1472 1.11432e-05 36.664C-0.0081438 42.1808 4.46076 46.6579 9.97758 46.666H36.5912C42.108 46.662 46.5769 42.1849 46.5729 36.6681C46.5769 31.1472 42.108 26.6701 36.5912 26.666Z" fill="#36C5F0"/>
<path fill-rule="evenodd" clip-rule="evenodd" d="M99.8002 36.664C99.8042 31.1472 95.3353 26.6701 89.8185 26.666C84.3017 26.6701 79.8328 31.1472 79.8369 36.664V46.666H89.8185C95.3353 46.662 99.8042 42.1849 99.8002 36.664ZM73.1865 36.664V9.99734C73.1906 4.48461 68.7258 0.00754459 63.2089 -0.000610352C57.6921 0.00346712 53.2232 4.48053 53.2273 9.99734V36.664C53.2192 42.1808 57.6881 46.6579 63.2049 46.666C68.7217 46.662 73.1906 42.1849 73.1865 36.664Z" fill="#2EB67D"/>
<path fill-rule="evenodd" clip-rule="evenodd" d="M63.205 99.9994C68.7219 99.9954 73.1908 95.5183 73.1867 90.0015C73.1908 84.4847 68.7219 80.0076 63.205 80.0035H53.2234V90.0015C53.2193 95.5142 57.6882 99.9913 63.205 99.9994ZM63.205 73.3287H89.8187C95.3355 73.3246 99.8044 68.8476 99.8003 63.3308C99.8085 57.8139 95.3396 53.3369 89.8228 53.3287H63.2091C57.6923 53.3328 53.2234 57.8099 53.2275 63.3267C53.2234 68.8476 57.6882 73.3246 63.205 73.3287Z" fill="#ECB22E"/>
<path fill-rule="evenodd" clip-rule="evenodd" d="M0.000246929 63.3307C-0.00383054 68.8475 4.46508 73.3246 9.98189 73.3287C15.4987 73.3246 19.9676 68.8475 19.9635 63.3307V53.3328H9.98189C4.46508 53.3368 -0.00383054 57.8139 0.000246929 63.3307ZM26.6139 63.3307V89.9974C26.6057 95.5142 31.0746 99.9912 36.5915 99.9994C42.1083 99.9953 46.5772 95.5183 46.5731 90.0014V63.3389C46.5813 57.8221 42.1124 53.345 36.5955 53.3368C31.0746 53.3368 26.6098 57.8139 26.6139 63.3307Z" fill="#E01E5A"/>
</svg>
